<svg xmlns="http://www.w3.org/2000/svg" viewBox="0 0 32 32" shape-rendering="crispEdges"><rect x="8" y="2" width="1" height="1" fill="#cba6f7"/><rect x="23" y="2" width="1" height="1" fill="#cba6f7"/><rect x="7" y="3" width="3" height="1" fill="#cba6f7"/><rect x="22" y="3" width="3" height="1" fill="#cba6f7"/><rect x="7" y="4" width="3" height="1" fill="#cba6f7"/><rect x="22" y="4" width="3" height="1" fill="#cba6f7"/><rect x="7" y="5" width="4" height="1" fill="#cba6f7"/><rect x="21" y="5" width="4" height="1" fill="#cba6f7"/><rect x="6" y="6" width="2" height="1" fill="#cba6f7"/><rect x="8" y="6" width="1" height="1" fill="#f5c2e7"/><rect x="9" y="6" width="3" height="1" fill="#cba6f7"/><rect x="20" y="6" width="3" height="1" fill="#cba6f7"/><rect x="23" y="6" width="1" height="1" fill="#f5c2e7"/><rect x="24" y="6" width="2" height="1" fill="#cba6f7"/><rect x="6" y="7" width="1" height="1" fill="#cba6f7"/><rect x="7" y="7" width="3" height="1" fill="#f5c2e7"/><rect x="10" y="7" width="2" height="1" fill="#cba6f7"/><rect x="20" y="7" width="2" height="1" fill="#cba6f7"/><rect x="22" y="7" width="3" height="1" fill="#f5c2e7"/><rect x="25" y="7" width="1" height="1" fill="#cba6f7"/><rect x="6" y="8" width="1" height="1" fill="#cba6f7"/><rect x="7" y="8" width="4" height="1" fill="#f5c2e7"/><rect x="11" y="8" width="10" height="1" fill="#cba6f7"/><rect x="21" y="8" width="4" height="1" fill="#f5c2e7"/><rect x="25" y="8" width="1" height="1" fill="#cba6f7"/><rect x="5" y="9" width="2" height="1" fill="#cba6f7"/><rect x="7" y="9" width="5" height="1" fill="#f5c2e7"/><rect x="12" y="9" width="8" height="1" fill="#cba6f7"/><rect x="20" y="9" width="5" height="1" fill="#f5c2e7"/><rect x="25" y="9" width="2" height="1" fill="#cba6f7"/><rect x="5" y="10" width="1" height="1" fill="#cba6f7"/><rect x="6" y="10" width="7" height="1" fill="#f5c2e7"/><rect x="13" y="10" width="6" height="1" fill="#cba6f7"/><rect x="19" y="10" width="7" height="1" fill="#f5c2e7"/><rect x="26" y="10" width="1" height="1" fill="#cba6f7"/><rect x="5" y="11" width="1" height="1" fill="#cba6f7"/><rect x="6" y="11" width="4" height="1" fill="#f5c2e7"/><rect x="10" y="11" width="12" height="1" fill="#cba6f7"/><rect x="22" y="11" width="4" height="1" fill="#f5c2e7"/><rect x="26" y="11" width="1" height="1" fill="#cba6f7"/><rect x="4" y="12" width="24" height="1" fill="#cba6f7"/><rect x="4" y="13" width="24" height="1" fill="#cba6f7"/><rect x="6" y="14" width="4" height="1" fill="#cba6f7"/><rect x="10" y="14" width="2" height="1" fill="#181825"/><rect x="12" y="14" width="8" height="1" fill="#cba6f7"/><rect x="20" y="14" width="2" height="1" fill="#181825"/><rect x="22" y="14" width="4" height="1" fill="#cba6f7"/><rect x="5" y="15" width="4" height="1" fill="#cba6f7"/><rect x="9" y="15" width="2" height="1" fill="#eff1f5"/><rect x="11" y="15" width="2" height="1" fill="#181825"/><rect x="13" y="15" width="6" height="1" fill="#cba6f7"/><rect x="19" y="15" width="2" height="1" fill="#eff1f5"/><rect x="21" y="15" width="2" height="1" fill="#181825"/><rect x="23" y="15" width="4" height="1" fill="#cba6f7"/><rect x="5" y="16" width="4" height="1" fill="#cba6f7"/><rect x="9" y="16" width="4" height="1" fill="#181825"/><rect x="13" y="16" width="6" height="1" fill="#cba6f7"/><rect x="19" y="16" width="4" height="1" fill="#181825"/><rect x="23" y="16" width="4" height="1" fill="#cba6f7"/><rect x="5" y="17" width="4" height="1" fill="#cba6f7"/><rect x="9" y="17" width="4" height="1" fill="#181825"/><rect x="13" y="17" width="6" height="1" fill="#cba6f7"/><rect x="19" y="17" width="4" height="1" fill="#181825"/><rect x="23" y="17" width="4" height="1" fill="#cba6f7"/><rect x="5" y="18" width="4" height="1" fill="#cba6f7"/><rect x="9" y="18" width="4" height="1" fill="#181825"/><rect x="13" y="18" width="6" height="1" fill="#cba6f7"/><rect x="19" y="18" width="4" height="1" fill="#181825"/><rect x="23" y="18" width="4" height="1" fill="#cba6f7"/><rect x="5" y="19" width="5" height="1" fill="#cba6f7"/><rect x="10" y="19" width="2" height="1" fill="#181825"/><rect x="12" y="19" width="8" height="1" fill="#cba6f7"/><rect x="20" y="19" width="2" height="1" fill="#181825"/><rect x="22" y="19" width="5" height="1" fill="#cba6f7"/><rect x="5" y="20" width="9" height="1" fill="#cba6f7"/><rect x="14" y="20" width="4" height="1" fill="#f5c2e7"/><rect x="18" y="20" width="9" height="1" fill="#cba6f7"/><rect x="6" y="21" width="9" height="1" fill="#cba6f7"/><rect x="15" y="21" width="2" height="1" fill="#f5c2e7"/><rect x="17" y="21" width="9" height="1" fill="#cba6f7"/><rect x="6" y="22" width="20" height="1" fill="#cba6f7"/><rect x="7" y="23" width="18" height="1" fill="#cba6f7"/><rect x="8" y="24" width="16" height="1" fill="#cba6f7"/><rect x="9" y="25" width="14" height="1" fill="#cba6f7"/><rect x="10" y="26" width="12" height="1" fill="#cba6f7"/><rect x="13" y="27" width="6" height="1" fill="#cba6f7"/></svg>
